<svg xmlns="http://www.w3.org/2000/svg" viewBox="0 0 190.54 68.94"><defs><style>.cls-1{fill:none;}.cls-2{fill:#fff;}</style></defs><title>Asset 2</title><g id="Layer_2" data-name="Layer 2"><g id="Layer_1-2" data-name="Layer 1"><path class="cls-1" d="M173.31,45.28a2.26,2.26,0,0,0-2.41,1.79h4C174.82,46.18,174.43,45.31,173.31,45.28Z"/><path class="cls-1" d="M136.1,45.2c-2.41,0-2.74,2.55-2.74,3.39s.34,3.36,2.74,3.36,2.72-2.52,2.72-3.36S138.48,45.2,136.1,45.2Z"/><path class="cls-1" d="M113,20c-2.41,0-2.74,2.55-2.74,3.39s.34,3.36,2.74,3.36,2.72-2.52,2.72-3.36S115.4,20,113,20Z"/><path class="cls-1" d="M56,19a3,3,0,0,1,0-.39L33,5.55a3,3,0,0,1-3.74-.18L6.06,18.46a3,3,0,0,1-1.77,3.3V47.43A3,3,0,0,1,6.09,50L29.72,63.25a3,3,0,0,1,2.78-.15L56.08,49.86a3,3,0,0,1,1.58-2.32V21.64A3,3,0,0,1,56,19Zm-9.57,5.61,1.78-1a1,1,0,1,1,1,1.74l-1.78,1a1,1,0,0,1-.49.13,1,1,0,0,1-.49-1.87Zm-5.33,3,1.78-1a1,1,0,0,1,1,1.74l-1.78,1a1,1,0,1,1-1-1.74Zm-23.24-.48a1,1,0,0,1,1.36-.38l1.78,1a1,1,0,0,1-1,1.74l-1.78-1A1,1,0,0,1,17.91,27.09Zm-5.33-3a1,1,0,0,1,1.36-.38l1.78,1a1,1,0,0,1-1,1.74l-1.78-1A1,1,0,0,1,12.58,24.09Zm-1.81-1a1,1,0,0,1-1.36.38l-1.78-1a1,1,0,0,1,1-1.74l1.78,1A1,1,0,0,1,10.77,23.07ZM21.51,50.64,18.71,49a1.63,1.63,0,0,1-.51-.51l-4.14-7V46c0,.17-.14.22-.31.13l-2.14-1.23a.63.63,0,0,1-.31-.48l0-11.16c0-.17.14-.22.31-.12l2.14,1.23a.63.63,0,0,1,.31.48V39L17.8,37a.53.53,0,0,1,.51.06l2.8,1.62c.12.07.19.24.1.28l-5,2.58,5.41,9C21.68,50.6,21.63,50.71,21.51,50.64Zm5.24-18.58a1,1,0,0,1-1.36.38l-1.78-1a1,1,0,0,1,1-1.74l1.78,1A1,1,0,0,1,26.76,32.06ZM32,60.93a1,1,0,0,1-2,0v-2a1,1,0,0,1,2,0Zm0-6.12a1,1,0,0,1-2,0v-2a1,1,0,0,1,2,0Zm0-6.12a1,1,0,0,1-2,0v-2a1,1,0,0,1,2,0Zm0-6.11a1,1,0,0,1-2,0v-2a1,1,0,0,1,2,0Zm-.73-5.06a3.06,3.06,0,1,1,3.06-3.06A3.06,3.06,0,0,1,31.24,37.53ZM35,23l-7.74-4.76-2.81,1.63a.6.6,0,0,1-.57,0l-1.64-1c-.15-.09-.13-.24,0-.34l8.4-4.87a.61.61,0,0,1,.57,0l1.64,1c.15.09.13.24,0,.34L30,16.64l7.74,4.76c.14.09.12.24,0,.34L35.54,23A.6.6,0,0,1,35,23Zm3.6,8.32-1.78,1a1,1,0,0,1-1-1.74l1.78-1a1,1,0,0,1,1,1.74ZM45.73,45.7a10.65,10.65,0,0,0,2.89-2.83c.14-.18.33-.29.43-.21l1.18.71c.12.07.11.28,0,.46a13.61,13.61,0,0,1-4.5,4.45c-4.56,2.59-6-.15-6-2.67a11.34,11.34,0,0,1,6-9.41c2-1.11,3.38-1.09,4.61-.48.12,0,.1.26,0,.45l-1.39,2.1c-.12.17-.3.28-.43.23a3.34,3.34,0,0,0-2.78.24A6.3,6.3,0,0,0,42.53,44C42.54,44.9,42.94,47.28,45.73,45.7Zm8.83-23.38-1.78,1a1,1,0,1,1-1-1.74l1.78-1a1,1,0,0,1,1,1.74Z"/><path class="cls-2" d="M31,57.9a1,1,0,0,0-1,1v2a1,1,0,0,0,2,0v-2A1,1,0,0,0,31,57.9Z"/><path class="cls-2" d="M31,39.55a1,1,0,0,0-1,1v2a1,1,0,0,0,2,0v-2A1,1,0,0,0,31,39.55Z"/><path class="cls-2" d="M31,51.78a1,1,0,0,0-1,1v2a1,1,0,0,0,2,0v-2A1,1,0,0,0,31,51.78Z"/><path class="cls-2" d="M31,45.67a1,1,0,0,0-1,1v2a1,1,0,0,0,2,0v-2A1,1,0,0,0,31,45.67Z"/><path class="cls-2" d="M18.29,28.45l1.78,1a1,1,0,1,0,1-1.74l-1.78-1a1,1,0,1,0-1,1.74Z"/><path class="cls-2" d="M26.38,30.7l-1.78-1a1,1,0,0,0-1,1.74l1.78,1a1,1,0,0,0,1.36-.38A1,1,0,0,0,26.38,30.7Z"/><path class="cls-2" d="M10.39,21.71l-1.78-1a1,1,0,0,0-1,1.74l1.78,1a1,1,0,1,0,1-1.74Z"/><path class="cls-2" d="M13,25.45l1.78,1a1,1,0,0,0,1-1.74l-1.78-1a1,1,0,1,0-1,1.74Z"/><path class="cls-2" d="M37.59,29.57l-1.78,1a1,1,0,0,0,1,1.74l1.78-1a1,1,0,0,0-1-1.74Z"/><path class="cls-2" d="M41.64,29.44a1,1,0,0,0,.49-.13l1.78-1a1,1,0,0,0-1-1.74l-1.78,1a1,1,0,0,0,.49,1.87Z"/><path class="cls-2" d="M53.58,20.57l-1.78,1a1,1,0,0,0,1,1.74l1.78-1a1,1,0,0,0-1-1.74Z"/><path class="cls-2" d="M47,26.44a1,1,0,0,0,.49-.13l1.78-1a1,1,0,1,0-1-1.74l-1.78,1A1,1,0,0,0,47,26.44Z"/><circle class="cls-2" cx="31.24" cy="34.47" r="3.06"/><path class="cls-2" d="M62.16,19a3.06,3.06,0,0,0-4.26-2.81L34.28,2.82a3,3,0,0,0-6-.32L4.13,16.1a3,3,0,0,0-2.84,5.34V47.74a3.05,3.05,0,1,0,3.54,5L28.19,65.83s0,0,0,.05a3.06,3.06,0,1,0,6.12,0,3,3,0,0,0,0-.34l23-12.91a3,3,0,1,0,3.41-5v-26A3,3,0,0,0,62.16,19Zm-6.08,30.9L32.5,63.1a3,3,0,0,0-2.78.15L6.09,50a3,3,0,0,0-1.8-2.55V21.75a3,3,0,0,0,1.77-3.3L29.26,5.37A3,3,0,0,0,33,5.55l23.08,13a2.88,2.88,0,0,0,1.58,3.07v25.9A3,3,0,0,0,56.08,49.86Z"/><path class="cls-2" d="M45.7,38.73a3.34,3.34,0,0,1,2.78-.24c.12,0,.31-.06.43-.23l1.39-2.1c.12-.18.14-.4,0-.45-1.24-.61-2.66-.63-4.61.48a11.34,11.34,0,0,0-6,9.41c0,2.52,1.42,5.25,6,2.67a13.61,13.61,0,0,0,4.5-4.45c.12-.19.14-.4,0-.46l-1.18-.71c-.1-.08-.29,0-.43.21a10.65,10.65,0,0,1-2.89,2.83c-2.79,1.58-3.19-.8-3.19-1.67A6.3,6.3,0,0,1,45.7,38.73Z"/><path class="cls-2" d="M37.67,21.74c.17-.1.19-.25,0-.34L30,16.64,32.82,15c.17-.1.19-.25,0-.34l-1.64-1a.61.61,0,0,0-.57,0l-8.4,4.87c-.17.1-.19.25,0,.34l1.64,1a.6.6,0,0,0,.57,0l2.81-1.63L35,23a.6.6,0,0,0,.57,0Z"/><path class="cls-2" d="M16.2,41.52l5-2.58c.09,0,0-.21-.1-.28L18.31,37A.53.53,0,0,0,17.8,37L14,39V34.88a.63.63,0,0,0-.31-.48l-2.14-1.23c-.17-.1-.31,0-.31.13l0,11.16a.63.63,0,0,0,.31.48l2.14,1.23c.17.1.31,0,.31-.12V41.5l4.14,7a1.63,1.63,0,0,0,.51.51l2.8,1.62c.12.07.17,0,.1-.16Z"/><path class="cls-2" d="M81.27,20.28l8.23-9.13a.22.22,0,0,0-.17-.36H84.74a1.13,1.13,0,0,0-.84.39l-6.16,7.06V11.29a.5.5,0,0,0-.5-.5h-3.5a.5.5,0,0,0-.5.5V29.88a.5.5,0,0,0,.5.5h3.5a.5.5,0,0,0,.5-.5V22.32L84.52,30a1.21,1.21,0,0,0,.84.36H90a.22.22,0,0,0,.17-.36Z"/><path class="cls-2" d="M98.32,16.16a5.44,5.44,0,0,0-3.22,1.09l-.22-.42a.88.88,0,0,0-.76-.45H92.36a.5.5,0,0,0-.5.5v13a.5.5,0,0,0,.5.5h3.25a.5.5,0,0,0,.5-.5V21a2.56,2.56,0,0,1,2.07-.92c1.82,0,1.88,1.82,1.88,3.11v6.72a.5.5,0,0,0,.5.5h3.3a.5.5,0,0,0,.5-.5V23.16C104.37,19.89,103.7,16.16,98.32,16.16Z"/><path class="cls-2" d="M113,16.11c-5.38,0-7,4.34-7,7.28s1.6,7.25,7,7.25,7-4.23,7-7.25S118.4,16.11,113,16.11Zm0,10.64c-2.41,0-2.74-2.52-2.74-3.36S110.62,20,113,20s2.72,2.55,2.72,3.39S115.4,26.75,113,26.75Z"/><path class="cls-2" d="M126.86,30.41a.5.5,0,0,0,.9,0l3.33-5.94,3.33,5.94a.5.5,0,0,0,.9,0l6.36-13.58a.31.31,0,0,0-.28-.45h-3.53a.76.76,0,0,0-.7.48l-2.58,6.44-3.11-6.83a.43.43,0,0,0-.78,0l-3.11,6.83L125,16.86a.76.76,0,0,0-.7-.48h-3.53a.31.31,0,0,0-.28.45Z"/><path class="cls-2" d="M142.87,15h4.62V29.88a.5.5,0,0,0,.5.5h3.5a.5.5,0,0,0,.5-.5V15h4.68a.5.5,0,0,0,.5-.5V11.29a.5.5,0,0,0-.5-.5h-13.8a.5.5,0,0,0-.5.5v3.16A.5.5,0,0,0,142.87,15Z"/><path class="cls-2" d="M167.82,23.16v6.72a.5.5,0,0,0,.5.5h3.22a.5.5,0,0,0,.5-.5V23.16c0-3.22-.56-6.75-5.46-7a5.6,5.6,0,0,0-2.77.64V11.29a.5.5,0,0,0-.5-.5h-3.25a.5.5,0,0,0-.5.5V29.88a.5.5,0,0,0,.5.5h3.25a.5.5,0,0,0,.5-.5v-9a2.38,2.38,0,0,1,1.76-.78C167.6,20,167.82,21.68,167.82,23.16Z"/><path class="cls-2" d="M188,16.39h-3.78a.76.76,0,0,0-.7.48L180.62,24l-2.77-7.17a.7.7,0,0,0-.67-.48h-3.78a.34.34,0,0,0-.31.48l5.24,12.43-2.58,6.19a.34.34,0,0,0,.31.48h3.56a.72.72,0,0,0,.7-.48l8-18.62A.35.35,0,0,0,188,16.39Z"/><path class="cls-2" d="M81.86,39.93a7.19,7.19,0,0,1,4.54,2.21.52.52,0,0,0,.7,0L89.36,40a.53.53,0,0,0,0-.73,9.8,9.8,0,0,0-7.53-3.56c-7.45,0-9.74,6-9.74,10.05s2.3,10.08,9.74,10.08a10.41,10.41,0,0,0,7.36-3.16.56.56,0,0,0,0-.76l-1.93-2.3a.49.49,0,0,0-.7-.06,8.15,8.15,0,0,1-4.73,2c-4.56,0-5.21-4.34-5.21-5.8S77.32,39.93,81.86,39.93Z"/><path class="cls-2" d="M103.42,41.59h-3.25a.5.5,0,0,0-.5.5V51a2.56,2.56,0,0,1-2.07.92c-1.82,0-1.88-1.82-1.88-3.11V42.09a.5.5,0,0,0-.5-.5h-3.3a.5.5,0,0,0-.5.5v6.72c0,3.28.67,7,6,7a5.44,5.44,0,0,0,3.22-1.09l.22.42a.88.88,0,0,0,.76.45h1.76a.5.5,0,0,0,.5-.5v-13A.5.5,0,0,0,103.42,41.59Z"/><path class="cls-2" d="M113.86,47.16c-1.54-.59-3-.9-3-1.51,0-.25.2-.5.78-.5a12.2,12.2,0,0,1,3.47.9.5.5,0,0,0,.67-.25l1.12-2.49a.54.54,0,0,0-.25-.7,12.61,12.61,0,0,0-5.15-1.23c-2.88,0-4.87,1.68-4.87,4.48,0,3.05,2.6,4,4.48,4.56,1.23.36,1.88.42,1.88,1s-.59.56-1.15.56a9,9,0,0,1-3.5-1,.5.5,0,0,0-.67.22l-1.29,2.46a.54.54,0,0,0,.22.7A10.19,10.19,0,0,0,112,55.81c3.08,0,5.35-1.79,5.35-4.42S115.54,47.8,113.86,47.16Z"/><path class="cls-2" d="M127.22,52.06a.46.46,0,0,0-.59-.36,6.09,6.09,0,0,1-1.46.2.69.69,0,0,1-.64-.78V45.42h2a.5.5,0,0,0,.5-.5V42.09a.5.5,0,0,0-.5-.5h-2V39.35a.5.5,0,0,0-.5-.5h-3a.57.57,0,0,0-.56.5l-.22,2.24h-.9a.5.5,0,0,0-.5.5v2.83a.5.5,0,0,0,.5.5h.9v6.38c0,1,.28,3.95,3.5,3.95a17.32,17.32,0,0,0,3.61-.59.57.57,0,0,0,.36-.64Z"/><path class="cls-2" d="M136.1,41.31c-5.38,0-7,4.34-7,7.28s1.6,7.25,7,7.25,7-4.23,7-7.25S141.47,41.31,136.1,41.31Zm0,10.64c-2.41,0-2.74-2.52-2.74-3.36s.34-3.39,2.74-3.39,2.72,2.55,2.72,3.39S138.48,51.95,136.1,51.95Z"/><path class="cls-2" d="M158.89,41.36a5,5,0,0,0-3.72,1.54,4.79,4.79,0,0,0-3.95-1.54,5.27,5.27,0,0,0-3.3,1.15l-.17-.45a.76.76,0,0,0-.7-.48h-1.79a.5.5,0,0,0-.5.5v13a.5.5,0,0,0,.5.5h3.25a.5.5,0,0,0,.5-.5v-9a2.82,2.82,0,0,1,2.07-.9c1.46,0,1.46,1.54,1.43,2.8v7.06a.5.5,0,0,0,.5.5h3.28a.5.5,0,0,0,.5-.5v-9a2.7,2.7,0,0,1,2-.9c1.43,0,1.48,1.54,1.4,2.8v7.06a.5.5,0,0,0,.5.5H164a.5.5,0,0,0,.5-.5V48.36C164.49,45.09,164.29,41.36,158.89,41.36Z"/><path class="cls-2" d="M173.31,41.39c-5.35,0-7,4.23-7,7.17s1.65,7.2,7,7.2a7.45,7.45,0,0,0,5-1.79.53.53,0,0,0,.11-.73l-1.46-2.13a.52.52,0,0,0-.7-.14,5.63,5.63,0,0,1-2.94.84,2.62,2.62,0,0,1-2.52-2.3h7.67A.6.6,0,0,0,179,49c.06-.53.11-1.09.11-1.54C179.16,43.8,177.06,41.39,173.31,41.39Zm-2.41,5.68a2.26,2.26,0,0,1,2.41-1.79c1.12,0,1.51.9,1.6,1.79Z"/><path class="cls-2" d="M190.16,41.61a17.18,17.18,0,0,0-2.1-.2,4.91,4.91,0,0,0-3.3,1l-.22-.42a.81.81,0,0,0-.73-.45H182a.5.5,0,0,0-.5.5v13a.5.5,0,0,0,.5.5h3.25a.5.5,0,0,0,.5-.5V46.26a2.4,2.4,0,0,1,2-.87,5.62,5.62,0,0,1,1.18.14.55.55,0,0,0,.62-.36l1-3A.48.48,0,0,0,190.16,41.61Z"/></g></g></svg>