<svg xmlns="http://www.w3.org/2000/svg" xmlns:xlink="http://www.w3.org/1999/xlink" viewBox="0 0 190.54 68.94"><defs><style>.cls-1{fill:#fff;}.cls-2{fill:#19b2cc;}.cls-3{fill:#263348;}.cls-4{mask:url(#mask);}.cls-5{mask:url(#mask-2-2);}.cls-6{mask:url(#mask-3);}</style><mask id="mask" x="28.19" y="0" width="6.12" height="6.12" maskUnits="userSpaceOnUse"><g id="mask-2"><polygon id="path-1" class="cls-1" points="34.3 0 28.19 0 28.19 6.12 34.3 6.12 34.3 0"/></g></mask><mask id="mask-2-2" x="28.19" y="62.83" width="6.12" height="6.12" maskUnits="userSpaceOnUse"><g id="mask-4"><polygon id="path-3" class="cls-1" points="28.19 68.94 34.3 68.94 34.3 62.83 28.19 62.83 28.19 68.94"/></g></mask><mask id="mask-3" x="181.54" y="41.42" width="9" height="14.17" maskUnits="userSpaceOnUse"><g id="mask-6"><polygon id="path-5" class="cls-1" points="190.54 55.59 190.54 41.42 181.54 41.42 181.54 55.59 190.54 55.59"/></g></mask></defs><title>Asset 1</title><g id="Layer_2" data-name="Layer 2"><g id="Layer_1-2" data-name="Layer 1"><g id="Page-1"><g id="KTC-LandngPage-1440-FreeTrial2"><g id="Intro"><g id="KTC-Logo"><path id="Fill-1" class="cls-2" d="M31,67.18a1.5,1.5,0,0,1-.73-.19L2.06,51.16a1.5,1.5,0,0,1-.77-1.31V18.58a1.5,1.5,0,0,1,3,0V49l27.42,15.4A1.5,1.5,0,0,1,31,67.18"/><path id="Fill-3" class="cls-3" d="M31,37.47a1,1,0,0,1-1-1v-2a1,1,0,0,1,2,0v2a1,1,0,0,1-1,1m0,6.12a1,1,0,0,1-1-1v-2a1,1,0,0,1,2,0v2a1,1,0,0,1-1,1m0,6.11a1,1,0,0,1-1-1v-2a1,1,0,0,1,2,0v2a1,1,0,0,1-1,1m0,6.12a1,1,0,0,1-1-1v-2a1,1,0,0,1,2,0v2a1,1,0,0,1-1,1m0,6.11a1,1,0,0,1-1-1v-2a1,1,0,0,1,2,0v2a1,1,0,0,1-1,1m0,4.74a1,1,0,0,1-1-1V65a1,1,0,0,1,2,0v.67a1,1,0,0,1-1,1"/><path id="Fill-5" class="cls-2" d="M4.57,20.58a1,1,0,0,1-.49-.13l-1.78-1a1,1,0,0,1,1-1.74l1.78,1a1,1,0,0,1-.49,1.87m5.33,3a1,1,0,0,1-.49-.13l-1.78-1a1,1,0,0,1,1-1.74l1.78,1a1,1,0,0,1-.49,1.87m5.33,3a1,1,0,0,1-.49-.13l-1.78-1a1,1,0,1,1,1-1.74l1.78,1a1,1,0,0,1-.49,1.87m5.33,3a1,1,0,0,1-.49-.13l-1.78-1a1,1,0,1,1,1-1.74l1.78,1a1,1,0,0,1-.49,1.87m5.33,3a1,1,0,0,1-.49-.13l-1.78-1a1,1,0,1,1,1-1.74l1.78,1a1,1,0,0,1-.49,1.87M31,35.43a1,1,0,0,1-.49-.13l-1.54-.87a1,1,0,1,1,1-1.74l1.54.86A1,1,0,0,1,31,35.43"/><path id="Fill-7" class="cls-3" d="M31,67.18a1.5,1.5,0,0,1-.74-2.81L57.66,49V18.58a1.5,1.5,0,0,1,3,0V49.85a1.5,1.5,0,0,1-.77,1.31L31.71,67a1.5,1.5,0,0,1-.73.19"/><path id="Fill-9" class="cls-2" d="M2.79,20.08a1.5,1.5,0,0,1-.74-2.81L30.24,1.37a1.5,1.5,0,0,1,1.48,0L59.9,17.27a1.5,1.5,0,1,1-1.47,2.61L31,4.4,3.53,19.89a1.5,1.5,0,0,1-.74.19"/><path id="Fill-11" class="cls-3" d="M57.63,20.45a1,1,0,0,1-.49-1.87l1.54-.86a1,1,0,1,1,1,1.74l-1.54.86a1,1,0,0,1-.49.13m-5.33,3a1,1,0,0,1-.49-1.87l1.78-1a1,1,0,0,1,1,1.74l-1.78,1a1,1,0,0,1-.49.13m-5.33,3a1,1,0,0,1-.49-1.87l1.78-1a1,1,0,0,1,1,1.74l-1.78,1a1,1,0,0,1-.49.13m-5.33,3a1,1,0,0,1-.49-1.87l1.78-1a1,1,0,0,1,1,1.74l-1.78,1a1,1,0,0,1-.49.13m-5.33,3a1,1,0,0,1-.49-1.87l1.78-1a1,1,0,0,1,1,1.74l-1.78,1a1,1,0,0,1-.49.13m-5.33,3a1,1,0,0,1-.49-1.87l1.78-1a1,1,0,0,1,1,1.74l-1.78,1a1,1,0,0,1-.49.13"/><g id="Group-15"><g class="cls-4"><path id="Fill-13" class="cls-2" d="M34.3,3.06A3.06,3.06,0,1,1,31.24,0,3.06,3.06,0,0,1,34.3,3.06"/></g></g><path id="Fill-16" class="cls-3" d="M34.3,34.47a3.06,3.06,0,1,1-3.06-3.06,3.06,3.06,0,0,1,3.06,3.06"/><path id="Fill-18" class="cls-2" d="M6.12,19A3.06,3.06,0,1,1,3.06,15.9,3.06,3.06,0,0,1,6.12,19"/><path id="Fill-20" class="cls-3" d="M62.16,19A3.06,3.06,0,1,1,59.1,15.9,3.06,3.06,0,0,1,62.16,19"/><path id="Fill-22" class="cls-2" d="M6.12,50.23a3.06,3.06,0,1,1-3.06-3.06,3.06,3.06,0,0,1,3.06,3.06"/><path id="Fill-24" class="cls-3" d="M62.16,50.23a3.06,3.06,0,1,1-3.06-3.06,3.06,3.06,0,0,1,3.06,3.06"/><path id="Fill-26" class="cls-3" d="M50.29,36.17c.12-.18.14-.4,0-.45-1.24-.61-2.66-.63-4.61.48a11.34,11.34,0,0,0-6,9.41c0,2.52,1.42,5.25,6,2.67a13.61,13.61,0,0,0,4.5-4.45c.12-.19.13-.4,0-.46l-1.18-.71c-.1-.08-.29,0-.43.21a10.65,10.65,0,0,1-2.89,2.83c-2.79,1.58-3.19-.8-3.19-1.67a6.3,6.3,0,0,1,3.16-5.29,3.34,3.34,0,0,1,2.78-.24c.12,0,.31-.06.43-.23Z"/><path id="Fill-28" class="cls-2" d="M35,23a.6.6,0,0,0,.57,0l2.13-1.23c.17-.1.19-.25,0-.34L30,16.64,32.82,15c.17-.1.19-.25,0-.34l-1.64-1a.61.61,0,0,0-.57,0l-8.4,4.87c-.17.1-.19.25,0,.34l1.64,1a.6.6,0,0,0,.57,0l2.81-1.63Z"/><path id="Fill-30" class="cls-2" d="M13.75,46.16c.17.1.31,0,.31-.12V41.5l4.14,7a1.62,1.62,0,0,0,.51.51l2.8,1.62c.12.07.17,0,.1-.16l-5.41-9,5-2.58c.09,0,0-.21-.1-.28L18.31,37A.53.53,0,0,0,17.8,37L14,39V34.88a.63.63,0,0,0-.31-.48l-2.14-1.23c-.17-.1-.31,0-.31.13l0,11.16a.63.63,0,0,0,.31.48Z"/><g id="Group-34"><g class="cls-5"><path id="Fill-32" class="cls-3" d="M34.3,65.89a3.06,3.06,0,1,1-3.06-3.06,3.06,3.06,0,0,1,3.06,3.06"/></g></g><path id="Fill-35" class="cls-2" d="M73.74,30.39a.5.5,0,0,1-.5-.5V11.29a.5.5,0,0,1,.5-.5h3.5a.5.5,0,0,1,.5.5v6.94l6.16-7.06a1.13,1.13,0,0,1,.84-.39h4.59a.22.22,0,0,1,.17.36l-8.23,9.13L90.12,30a.22.22,0,0,1-.17.36H85.36a1.21,1.21,0,0,1-.84-.36l-6.78-7.7v7.56a.5.5,0,0,1-.5.5Z"/><path id="Fill-37" class="cls-2" d="M96.11,29.88a.5.5,0,0,1-.5.5H92.36a.5.5,0,0,1-.5-.5v-13a.5.5,0,0,1,.5-.5h1.76a.88.88,0,0,1,.76.45l.22.42a5.44,5.44,0,0,1,3.22-1.09c5.38,0,6,3.72,6,7v6.72a.5.5,0,0,1-.5.5h-3.3a.5.5,0,0,1-.5-.5V23.16c0-1.29-.06-3.11-1.88-3.11a2.56,2.56,0,0,0-2.07.92Z"/><path id="Fill-39" class="cls-2" d="M115.74,23.39c0-.84-.34-3.39-2.72-3.39s-2.74,2.55-2.74,3.39.34,3.36,2.74,3.36,2.72-2.52,2.72-3.36m4.26,0c0,3-1.6,7.25-7,7.25s-7-4.23-7-7.25,1.6-7.28,7-7.28,7,4.34,7,7.28"/><path id="Fill-41" class="cls-2" d="M131.48,16.47l3.11,6.83,2.58-6.44a.76.76,0,0,1,.7-.48h3.53a.31.31,0,0,1,.28.45l-6.36,13.58a.5.5,0,0,1-.9,0l-3.33-5.94-3.33,5.94a.5.5,0,0,1-.9,0L120.5,16.83a.31.31,0,0,1,.28-.45h3.53a.76.76,0,0,1,.7.48l2.58,6.44,3.11-6.83a.43.43,0,0,1,.78,0"/><path id="Fill-43" class="cls-2" d="M147.49,15h-4.62a.5.5,0,0,1-.5-.5V11.29a.5.5,0,0,1,.5-.5h13.8a.5.5,0,0,1,.5.5v3.16a.5.5,0,0,1-.5.5H152V29.88a.5.5,0,0,1-.5.5H148a.5.5,0,0,1-.5-.5Z"/><path id="Fill-45" class="cls-2" d="M160.06,30.39a.5.5,0,0,1-.5-.5V11.29a.5.5,0,0,1,.5-.5h3.25a.5.5,0,0,1,.5.5v5.52a5.59,5.59,0,0,1,2.77-.64c4.9.25,5.46,3.78,5.46,7v6.72a.5.5,0,0,1-.5.5h-3.22a.5.5,0,0,1-.5-.5V23.16c0-1.48-.22-3.14-2.24-3.08a2.38,2.38,0,0,0-1.76.78v9a.5.5,0,0,1-.5.5Z"/><path id="Fill-47" class="cls-2" d="M180.62,24l2.86-7.17a.76.76,0,0,1,.7-.48H188a.35.35,0,0,1,.31.48l-8,18.62a.72.72,0,0,1-.7.48h-3.56a.34.34,0,0,1-.31-.48l2.58-6.19-5.24-12.43a.34.34,0,0,1,.31-.48h3.78a.7.7,0,0,1,.67.48Z"/><path id="Fill-49" class="cls-3" d="M87.1,42.17a.52.52,0,0,1-.7,0,7.19,7.19,0,0,0-4.54-2.21c-4.54,0-5.18,4.37-5.18,5.82s.64,5.8,5.21,5.8a8.15,8.15,0,0,0,4.73-2,.49.49,0,0,1,.7.06l1.93,2.3a.56.56,0,0,1,0,.76,10.41,10.41,0,0,1-7.36,3.16c-7.45,0-9.75-5.88-9.75-10.08s2.3-10.05,9.75-10.05a9.8,9.8,0,0,1,7.53,3.56.53.53,0,0,1,0,.73Z"/><path id="Fill-51" class="cls-3" d="M99.67,42.09a.5.5,0,0,1,.5-.5h3.25a.5.5,0,0,1,.5.5v13a.5.5,0,0,1-.5.5h-1.76a.88.88,0,0,1-.76-.45l-.22-.42a5.44,5.44,0,0,1-3.22,1.09c-5.38,0-6-3.72-6-7V42.09a.5.5,0,0,1,.5-.5h3.3a.5.5,0,0,1,.5.5v6.72c0,1.29.06,3.11,1.88,3.11A2.56,2.56,0,0,0,99.67,51Z"/><path id="Fill-53" class="cls-3" d="M117.34,51.39c0,2.63-2.27,4.42-5.35,4.42a10.19,10.19,0,0,1-5.38-1.51.54.54,0,0,1-.22-.7l1.29-2.46a.5.5,0,0,1,.67-.22,9,9,0,0,0,3.5,1c.56,0,1.15-.17,1.15-.56s-.64-.59-1.88-1c-1.88-.56-4.48-1.51-4.48-4.56,0-2.8,2-4.48,4.87-4.48a12.61,12.61,0,0,1,5.15,1.23.54.54,0,0,1,.25.7l-1.12,2.49a.5.5,0,0,1-.67.25,12.2,12.2,0,0,0-3.47-.9c-.59,0-.78.25-.78.5,0,.62,1.46.92,3,1.51s3.47,1.62,3.47,4.23"/><path id="Fill-55" class="cls-3" d="M119.38,45.42a.5.5,0,0,1-.5-.5V42.09a.5.5,0,0,1,.5-.5h.9l.22-2.24a.57.57,0,0,1,.56-.5h3a.5.5,0,0,1,.5.5v2.24h2a.5.5,0,0,1,.5.5v2.83a.5.5,0,0,1-.5.5h-2v5.68a.69.69,0,0,0,.64.78,6.09,6.09,0,0,0,1.46-.2.46.46,0,0,1,.59.36l.53,2.46a.57.57,0,0,1-.36.64,17.32,17.32,0,0,1-3.61.59c-3.22,0-3.5-2.91-3.5-3.95V45.42Z"/><path id="Fill-57" class="cls-3" d="M138.81,48.59c0-.84-.34-3.39-2.72-3.39s-2.74,2.55-2.74,3.39.34,3.36,2.74,3.36,2.72-2.52,2.72-3.36m4.26,0c0,3-1.6,7.25-7,7.25s-7-4.23-7-7.25,1.6-7.28,7-7.28,7,4.34,7,7.28"/><path id="Fill-59" class="cls-3" d="M149,55.08a.5.5,0,0,1-.5.5h-3.25a.5.5,0,0,1-.5-.5v-13a.5.5,0,0,1,.5-.5H147a.76.76,0,0,1,.7.48l.17.45a5.27,5.27,0,0,1,3.3-1.15,4.79,4.79,0,0,1,3.95,1.54,5,5,0,0,1,3.72-1.54c5.4,0,5.6,3.72,5.6,7v6.72a.5.5,0,0,1-.5.5h-3.33a.5.5,0,0,1-.5-.5V48c.08-1.26,0-2.8-1.4-2.8a2.7,2.7,0,0,0-2,.9v9a.5.5,0,0,1-.5.5H153a.5.5,0,0,1-.5-.5V48c0-1.26,0-2.8-1.43-2.8a2.82,2.82,0,0,0-2.07.9Z"/><path id="Fill-61" class="cls-3" d="M170.9,47.07h4c-.08-.9-.48-1.76-1.6-1.79a2.26,2.26,0,0,0-2.41,1.79Zm-.11,2.44a2.62,2.62,0,0,0,2.52,2.3,5.63,5.63,0,0,0,2.94-.84.52.52,0,0,1,.7.14l1.46,2.13a.53.53,0,0,1-.11.73,7.45,7.45,0,0,1-5,1.79c-5.35,0-7-4.17-7-7.2s1.65-7.17,7-7.17c3.75,0,5.85,2.41,5.85,6.08,0,.45-.06,1-.11,1.54a.6.6,0,0,1-.59.5Z"/><g id="Group-65"><g class="cls-6"><path id="Fill-63" class="cls-3" d="M189.57,45.17a.55.55,0,0,1-.62.36,5.62,5.62,0,0,0-1.18-.14,2.4,2.4,0,0,0-2,.87v8.82a.5.5,0,0,1-.5.5H182a.5.5,0,0,1-.5-.5v-13a.5.5,0,0,1,.5-.5h1.76a.81.81,0,0,1,.73.45l.22.42a4.91,4.91,0,0,1,3.3-1,17.18,17.18,0,0,1,2.1.2.48.48,0,0,1,.36.59Z"/></g></g></g></g></g></g></g></g></svg>